<svg id="Layer_1" data-name="Layer 1" xmlns="http://www.w3.org/2000/svg" viewBox="0 0 2047.04 1890.49"><defs><style>.cls-1,.cls-7,.cls-9{fill:none;stroke-miterlimit:10;}.cls-1{stroke:#d7eff2;stroke-width:10px;}.cls-2{fill:#d7eff2;}.cls-3{fill:#62a5a2;}.cls-4{fill:#508c88;}.cls-5{fill:#7bbdbc;}.cls-6{fill:#9fd9db;}.cls-7{stroke:#9fd9db;stroke-width:6px;}.cls-8{fill:#fff;}.cls-9{stroke:#c2e6e9;stroke-width:5px;}</style></defs><title>case-study-design</title><line class="cls-1" x1="1023.52" y1="994.41" x2="1023.52" y2="1085.94"/><polygon class="cls-2" points="1003.07 1010.97 1006.73 1014.38 1023.52 996.33 1040.3 1014.38 1043.96 1010.97 1023.52 988.98 1003.07 1010.97"/><polyline class="cls-1" points="1385.72 1159.92 1385.72 1080.07 661.32 1080.07 661.32 1159.92"/><rect class="cls-3" x="1128.22" y="1234.19" width="596.07" height="436.44"/><rect class="cls-4" x="1128.22" y="1232.29" width="165.64" height="438.35"/><rect class="cls-5" x="1128.22" y="1200.62" width="596.07" height="45.78"/><rect class="cls-6" x="1348.64" y="1285.12" width="165.9" height="15.58"/><rect class="cls-6" x="1366.18" y="1311.41" width="96.92" height="15.58"/><rect class="cls-6" x="1366.18" y="1337.75" width="87.04" height="15.58"/><rect class="cls-3" x="1151.72" y="1268.14" width="119.31" height="15.58"/><rect class="cls-3" x="1164.33" y="1294.43" width="69.7" height="15.58"/><rect class="cls-3" x="1164.33" y="1320.77" width="62.6" height="15.58"/><rect class="cls-3" x="1151.72" y="1354.72" width="119.31" height="15.58"/><rect class="cls-3" x="1151.72" y="1440.46" width="119.31" height="15.58"/><rect class="cls-3" x="1151.72" y="1471.01" width="119.31" height="15.58"/><rect class="cls-3" x="1151.72" y="1501.57" width="119.31" height="15.58"/><rect class="cls-3" x="1151.72" y="1532.13" width="119.31" height="15.58"/><rect class="cls-3" x="1164.33" y="1381.01" width="69.7" height="15.58"/><rect class="cls-3" x="1164.33" y="1407.35" width="62.6" height="15.58"/><rect class="cls-6" x="1348.64" y="1362.97" width="9.43" height="15.58"/><rect class="cls-6" x="1366.18" y="1508.5" width="55.92" height="15.58"/><rect class="cls-6" x="1383.72" y="1534.78" width="232.22" height="15.58"/><rect class="cls-6" x="1383.72" y="1561.12" width="146.8" height="15.58"/><rect class="cls-6" x="1366.18" y="1586.34" width="9.43" height="15.58"/><rect class="cls-6" x="1348.64" y="1408.48" width="115.36" height="15.58"/><rect class="cls-6" x="1366.18" y="1434.77" width="87.04" height="15.58"/><rect class="cls-6" x="1366.18" y="1461.1" width="107.23" height="15.58"/><rect class="cls-6" x="1348.64" y="1615.89" width="9.43" height="15.58"/><rect class="cls-6" x="1143.71" y="1214.44" width="16.98" height="16.98"/><rect class="cls-6" x="1171.72" y="1214.44" width="16.98" height="16.98"/><rect class="cls-6" x="1199.73" y="1214.44" width="16.98" height="16.98"/><rect class="cls-4" x="1414.83" y="1486.96" width="419.52" height="295.51"/><rect class="cls-5" x="1414.83" y="1457.17" width="419.52" height="45.78"/><rect class="cls-6" x="1445.11" y="1534.87" width="237.96" height="13.94"/><rect class="cls-6" x="1445.11" y="1573.98" width="153.07" height="13.94"/><rect class="cls-6" x="1445.11" y="1613.09" width="188.76" height="13.94"/><rect class="cls-6" x="1445.11" y="1652.2" width="270.97" height="13.94"/><rect class="cls-6" x="1445.11" y="1691.31" width="188.76" height="13.94"/><rect class="cls-6" x="1472.55" y="1747.95" width="21.7" height="4.83"/><polyline class="cls-7" points="1448.06 1724.69 1460.88 1737.5 1448.06 1750.32"/><rect class="cls-4" x="1430.32" y="1471.83" width="16.98" height="16.98"/><rect class="cls-4" x="1458.33" y="1471.83" width="16.98" height="16.98"/><rect class="cls-4" x="1486.34" y="1471.83" width="16.98" height="16.98"/><rect class="cls-8" x="216.66" y="1200.62" width="725.94" height="514.32"/><rect class="cls-3" x="216.66" y="1227.07" width="725.94" height="78.68"/><rect class="cls-8" x="821.23" y="1265.17" width="106.13" height="78.68"/><rect class="cls-5" x="419.83" y="1268.06" width="120.55" height="21.08"/><rect class="cls-6" x="440.85" y="1346.82" width="457.01" height="36.14"/><rect class="cls-6" x="440.85" y="1401.44" width="457.01" height="36.14"/><rect class="cls-6" x="440.85" y="1456.06" width="457.01" height="36.14"/><rect class="cls-6" x="440.85" y="1510.68" width="457.01" height="36.14"/><rect class="cls-6" x="440.85" y="1565.3" width="457.01" height="36.14"/><rect class="cls-6" x="440.85" y="1619.92" width="457.01" height="36.14"/><rect class="cls-4" x="216.66" y="1230.48" width="181.25" height="484.47"/><rect class="cls-5" x="216.66" y="1200.62" width="725.94" height="50.1"/><rect class="cls-6" x="242.37" y="1274.51" width="130.56" height="17.05"/><rect class="cls-6" x="256.18" y="1303.28" width="76.28" height="17.05"/><rect class="cls-6" x="256.18" y="1332.1" width="68.5" height="17.05"/><rect class="cls-6" x="242.37" y="1369.25" width="130.56" height="17.05"/><rect class="cls-6" x="242.37" y="1463.07" width="130.56" height="17.05"/><rect class="cls-6" x="242.37" y="1496.51" width="130.56" height="17.05"/><rect class="cls-6" x="242.37" y="1529.95" width="130.56" height="17.05"/><rect class="cls-6" x="242.37" y="1563.38" width="130.56" height="17.05"/><rect class="cls-6" x="256.18" y="1398.02" width="76.28" height="17.05"/><rect class="cls-6" x="256.18" y="1426.84" width="68.5" height="17.05"/><rect class="cls-6" x="233.61" y="1215.74" width="18.58" height="18.58"/><rect class="cls-6" x="264.26" y="1215.74" width="18.58" height="18.58"/><rect class="cls-6" x="294.92" y="1215.74" width="18.58" height="18.58"/><rect class="cls-8" x="401.61" y="118.9" width="1243.81" height="824.37"/><rect class="cls-5" x="401.61" y="118.9" width="1243.81" height="64.05"/><rect class="cls-6" x="590" y="243.15" width="867.04" height="403.36"/><rect class="cls-6" x="824.44" y="707.55" width="398.16" height="49.44"/><rect class="cls-6" x="683.64" y="804.48" width="679.77" height="17.06"/><rect class="cls-6" x="683.64" y="837.73" width="679.77" height="17.06"/><rect class="cls-6" x="683.64" y="870.97" width="679.77" height="17.06"/><line class="cls-9" x1="611.19" y1="265.9" x2="1435.86" y2="623.77"/><line class="cls-9" x1="1435.86" y1="265.9" x2="611.19" y2="623.77"/><line class="cls-9" x1="611.19" y1="265.9" x2="1435.86" y2="623.77"/><rect class="cls-6" x="423.88" y="138.62" width="23.75" height="23.75"/><rect class="cls-6" x="463.06" y="138.62" width="23.75" height="23.75"/><rect class="cls-6" x="502.24" y="138.62" width="23.75" height="23.75"/></svg>