<svg id="Layer_1" data-name="Layer 1" xmlns="http://www.w3.org/2000/svg" viewBox="0 0 2047.04 1890.49"><defs><style>.cls-1{fill:#e1edf1;}.cls-2{fill:#93a0a4;}.cls-3{fill:#b5c1c4;}.cls-4,.cls-6{fill:none;stroke-miterlimit:10;}.cls-4{stroke:#abb7bb;stroke-width:5px;}.cls-5{fill:#7d898c;}.cls-6{stroke:#e1edf1;stroke-width:10px;}.cls-7{fill:#fff;}.cls-16,.cls-8,.cls-9{fill:#bdccd2;}.cls-16,.cls-9{font-size:41px;font-family:ProximaNova-Extrabld, Proxima Nova;}.cls-9{letter-spacing:0.1em;}.cls-10{letter-spacing:0.09em;}.cls-11{letter-spacing:0.08em;}.cls-12{letter-spacing:0.1em;}.cls-13{letter-spacing:0.1em;}.cls-14{letter-spacing:0.1em;}.cls-15{letter-spacing:0.1em;}.cls-16{letter-spacing:0.1em;}.cls-17{letter-spacing:0.1em;}.cls-18{letter-spacing:0.07em;}.cls-19{letter-spacing:0.08em;}.cls-20{letter-spacing:0.1em;}.cls-21{letter-spacing:0.1em;}.cls-22{letter-spacing:0.08em;}.cls-23{letter-spacing:0.1em;}.cls-24{letter-spacing:0.1em;}.cls-25{letter-spacing:0.09em;}.cls-26{letter-spacing:0.09em;}.cls-27{letter-spacing:0.09em;}</style></defs><title>case-study-admin</title><rect class="cls-1" x="964.81" y="862.23" width="834.56" height="716.18"/><rect class="cls-1" x="964.81" y="1593.49" width="834.56" height="138.74"/><rect class="cls-1" x="964.81" y="158.26" width="834.56" height="687.9"/><rect class="cls-2" x="1195.64" y="204.44" width="372.3" height="317.7"/><rect class="cls-2" x="1582.36" y="204.44" width="172.88" height="151.18"/><rect class="cls-2" x="1582.36" y="370.95" width="172.88" height="151.18"/><rect class="cls-3" x="1524.1" y="577.18" width="231.14" height="45.05"/><rect class="cls-2" x="1006.53" y="577.18" width="338.33" height="33.33"/><rect class="cls-2" x="1300.61" y="916.21" width="159.91" height="13.03"/><rect class="cls-2" x="1273.4" y="942.48" width="214.33" height="32"/><rect class="cls-3" x="1325.04" y="1006.05" width="111.06" height="41.03"/><rect class="cls-3" x="1325.04" y="1476.85" width="111.06" height="41.03"/><rect class="cls-2" x="1006.53" y="663.92" width="389.63" height="129.57"/><rect class="cls-2" x="1057.1" y="1626.36" width="101.41" height="68.68"/><rect class="cls-2" x="1238.94" y="1626.36" width="101.41" height="68.68"/><rect class="cls-2" x="1420.78" y="1626.36" width="101.41" height="68.68"/><rect class="cls-2" x="1602.62" y="1626.36" width="101.41" height="68.68"/><line class="cls-4" x1="1068.6" y1="1639.71" x2="1145.47" y2="1682.35"/><line class="cls-4" x1="1145.47" y1="1639.71" x2="1068.6" y2="1682.35"/><line class="cls-4" x1="1068.6" y1="1639.71" x2="1145.47" y2="1682.35"/><line class="cls-4" x1="1251.19" y1="1639.71" x2="1328.06" y2="1682.35"/><line class="cls-4" x1="1328.06" y1="1639.71" x2="1251.19" y2="1682.35"/><line class="cls-4" x1="1251.19" y1="1639.71" x2="1328.06" y2="1682.35"/><line class="cls-4" x1="1431.52" y1="1639.71" x2="1508.39" y2="1682.35"/><line class="cls-4" x1="1508.39" y1="1639.71" x2="1431.52" y2="1682.35"/><line class="cls-4" x1="1431.52" y1="1639.71" x2="1508.39" y2="1682.35"/><line class="cls-4" x1="1614.1" y1="1639.71" x2="1690.97" y2="1682.35"/><line class="cls-4" x1="1690.97" y1="1639.71" x2="1614.1" y2="1682.35"/><line class="cls-4" x1="1614.1" y1="1639.71" x2="1690.97" y2="1682.35"/><rect class="cls-3" x="1524.1" y="634.27" width="231.14" height="45.05"/><rect class="cls-3" x="1524.1" y="691.36" width="231.14" height="45.05"/><rect class="cls-3" x="1524.1" y="748.44" width="231.14" height="45.05"/><rect class="cls-2" x="1006.53" y="204.44" width="172.88" height="151.18"/><rect class="cls-2" x="1006.53" y="370.95" width="172.88" height="151.18"/><rect class="cls-2" x="1274.52" y="1087.42" width="212.83" height="160.09"/><rect class="cls-2" x="1029.81" y="1087.42" width="212.83" height="160.09"/><line class="cls-4" x1="1052.82" y1="1107.73" x2="1219.63" y2="1227.2"/><line class="cls-4" x1="1219.63" y1="1107.73" x2="1052.82" y2="1227.2"/><line class="cls-4" x1="1052.82" y1="1107.73" x2="1219.63" y2="1227.2"/><line class="cls-4" x1="1297.53" y1="1107.73" x2="1464.34" y2="1227.2"/><line class="cls-4" x1="1464.34" y1="1107.73" x2="1297.53" y2="1227.2"/><line class="cls-4" x1="1297.53" y1="1107.73" x2="1464.34" y2="1227.2"/><rect class="cls-2" x="1029.81" y="1278.22" width="212.83" height="160.09"/><rect class="cls-2" x="1274.52" y="1278.22" width="212.83" height="160.09"/><rect class="cls-2" x="1519.22" y="1278.22" width="212.83" height="160.09"/><rect class="cls-2" x="1519.22" y="1087.42" width="212.83" height="160.09"/><line class="cls-4" x1="1542.24" y1="1107.73" x2="1709.04" y2="1227.2"/><line class="cls-4" x1="1709.04" y1="1107.73" x2="1542.24" y2="1227.2"/><line class="cls-4" x1="1542.24" y1="1107.73" x2="1709.04" y2="1227.2"/><line class="cls-4" x1="1052.82" y1="1298.53" x2="1219.63" y2="1418"/><line class="cls-4" x1="1219.63" y1="1298.53" x2="1052.82" y2="1418"/><line class="cls-4" x1="1052.82" y1="1298.53" x2="1219.63" y2="1418"/><line class="cls-4" x1="1297.53" y1="1298.53" x2="1464.34" y2="1418"/><line class="cls-4" x1="1464.34" y1="1298.53" x2="1297.53" y2="1418"/><line class="cls-4" x1="1297.53" y1="1298.53" x2="1464.34" y2="1418"/><line class="cls-4" x1="1542.24" y1="1298.53" x2="1709.04" y2="1418"/><line class="cls-4" x1="1709.04" y1="1298.53" x2="1542.24" y2="1418"/><line class="cls-4" x1="1542.24" y1="1298.53" x2="1709.04" y2="1418"/><line class="cls-4" x1="1214.22" y1="221.67" x2="1548.96" y2="505.69"/><line class="cls-4" x1="1548.96" y1="221.67" x2="1214.22" y2="505.69"/><line class="cls-4" x1="1214.22" y1="221.67" x2="1548.96" y2="505.69"/><line class="cls-4" x1="1597.43" y1="221.67" x2="1736.06" y2="338.88"/><line class="cls-4" x1="1736.06" y1="221.67" x2="1597.43" y2="338.88"/><line class="cls-4" x1="1597.43" y1="221.67" x2="1736.06" y2="338.88"/><line class="cls-4" x1="1597.43" y1="387.31" x2="1736.06" y2="504.53"/><line class="cls-4" x1="1736.06" y1="387.31" x2="1597.43" y2="504.53"/><line class="cls-4" x1="1597.43" y1="387.31" x2="1736.06" y2="504.53"/><line class="cls-4" x1="1022.62" y1="221.67" x2="1161.25" y2="338.88"/><line class="cls-4" x1="1161.25" y1="221.67" x2="1022.62" y2="338.88"/><line class="cls-4" x1="1022.62" y1="221.67" x2="1161.25" y2="338.88"/><line class="cls-4" x1="1022.62" y1="387.31" x2="1161.25" y2="504.53"/><line class="cls-4" x1="1161.25" y1="387.31" x2="1022.62" y2="504.53"/><line class="cls-4" x1="1022.62" y1="387.31" x2="1161.25" y2="504.53"/><path class="cls-5" d="M1616.45,599.46a6.91,6.91,0,0,1,6.91-6.91h13.58v-5h-13.58a11.95,11.95,0,0,0,0,23.89h13.58v-5h-13.58a6.91,6.91,0,0,1-6.91-6.91Zm39.53-12H1642.4v5H1656a6.91,6.91,0,1,1,0,13.82H1642.4v5H1656a11.95,11.95,0,1,0,0-23.89Zm-30.68,12a2.56,2.56,0,0,0,2.55,2.54h23.71a2.55,2.55,0,0,0,0-5.09h-23.71A2.56,2.56,0,0,0,1625.3,599.46Z"/><path class="cls-5" d="M1616.45,656.59a6.91,6.91,0,0,1,6.91-6.92h13.58v-5h-13.58a11.95,11.95,0,0,0,0,23.89h13.58v-5h-13.58a6.91,6.91,0,0,1-6.91-6.91Zm39.53-12H1642.4v5H1656a6.92,6.92,0,0,1,0,13.83H1642.4v5H1656a11.95,11.95,0,1,0,0-23.89Zm-30.68,12a2.56,2.56,0,0,0,2.55,2.54h23.71a2.55,2.55,0,0,0,0-5.09h-23.71A2.56,2.56,0,0,0,1625.3,656.59Z"/><path class="cls-5" d="M1616.45,714.39a6.91,6.91,0,0,1,6.91-6.91h13.58v-5h-13.58a11.95,11.95,0,0,0,0,23.89h13.58v-5h-13.58a6.91,6.91,0,0,1-6.91-6.91ZM1656,702.45H1642.4v5H1656a6.91,6.91,0,1,1,0,13.82H1642.4v5H1656a11.95,11.95,0,1,0,0-23.89Zm-30.68,11.94a2.56,2.56,0,0,0,2.55,2.55h23.71a2.55,2.55,0,0,0,0-5.09h-23.71A2.56,2.56,0,0,0,1625.3,714.39Z"/><path class="cls-5" d="M1616.45,771.52a6.91,6.91,0,0,1,6.91-6.91h13.58v-5h-13.58a11.95,11.95,0,0,0,0,23.89h13.58v-5h-13.58a6.91,6.91,0,0,1-6.91-6.91ZM1656,759.58H1642.4v5H1656a6.91,6.91,0,1,1,0,13.82H1642.4v5H1656a11.95,11.95,0,1,0,0-23.89Zm-30.68,11.94a2.56,2.56,0,0,0,2.55,2.55h23.71a2.55,2.55,0,0,0,0-5.09h-23.71A2.56,2.56,0,0,0,1625.3,771.52Z"/><path class="cls-5" d="M1357.34,1026.08a6.91,6.91,0,0,1,6.92-6.91h13.58v-5h-13.58a11.95,11.95,0,1,0,0,23.89h13.58v-5h-13.58a6.91,6.91,0,0,1-6.92-6.91Zm39.54-11.95H1383.3v5h13.58a6.91,6.91,0,1,1,0,13.82H1383.3v5h13.58a11.95,11.95,0,0,0,0-23.89Zm-30.68,11.95a2.56,2.56,0,0,0,2.54,2.54h23.71a2.55,2.55,0,1,0,0-5.09h-23.71A2.56,2.56,0,0,0,1366.2,1026.08Z"/><path class="cls-5" d="M1357.34,1496.14a6.91,6.91,0,0,1,6.92-6.91h13.58v-5h-13.58a11.95,11.95,0,1,0,0,23.89h13.58v-5h-13.58a6.91,6.91,0,0,1-6.92-6.91Zm39.54-11.94H1383.3v5h13.58a6.91,6.91,0,0,1,0,13.82H1383.3v5h13.58a11.95,11.95,0,0,0,0-23.89Zm-30.68,11.94a2.56,2.56,0,0,0,2.54,2.55h23.71a2.55,2.55,0,1,0,0-5.09h-23.71A2.56,2.56,0,0,0,1366.2,1496.14Z"/><line class="cls-6" x1="926.05" y1="422.38" x2="575.81" y2="422.38"/><polygon class="cls-1" points="909.48 401.93 906.07 405.59 924.13 422.37 906.07 439.16 909.48 442.82 931.47 422.37 909.48 401.93"/><line class="cls-6" x1="900.63" y1="1166.71" x2="704.45" y2="1166.71"/><rect class="cls-1" x="319.84" y="207.48" width="351.52" height="455.88"/><rect class="cls-3" x="374.61" y="266.41" width="241.97" height="33.39"/><rect class="cls-3" x="374.61" y="465.34" width="241.97" height="42.73"/><rect class="cls-3" x="374.61" y="525.02" width="241.97" height="42.73"/><rect class="cls-3" x="374.61" y="319.46" width="241.97" height="87.93"/><polygon class="cls-7" points="493.54 381.43 320.08 381.43 493.54 207.97 493.54 381.43"/><polygon class="cls-8" points="319.14 206.09 492.61 206.09 319.14 379.55 319.14 206.09"/><rect class="cls-1" x="195.14" y="831.63" width="517.23" height="372.49"/><rect class="cls-1" x="195.14" y="785.69" width="193.71" height="100.77"/><polyline class="cls-6" points="931.47 1087.9 903.67 1087.9 903.67 1442.64 931.47 1442.64"/><polyline class="cls-6" points="931.47 1591.24 903.67 1591.24 903.67 1733.94 931.47 1733.94"/><polyline class="cls-6" points="1829.63 1580.47 1889.37 1580.47 1889.37 856.07 1829.63 856.07"/><rect class="cls-1" x="1708.73" y="1182.6" width="360.07" height="71.34" transform="translate(670.49 3107.03) rotate(-90)"/><text class="cls-9" transform="translate(1905.56 1367.76) rotate(-90)">S<tspan class="cls-10" x="28.96" y="0">H</tspan><tspan class="cls-11" x="63.23" y="0">O</tspan><tspan class="cls-12" x="97.73" y="0">W / </tspan><tspan class="cls-13" x="187.68" y="0">H</tspan><tspan class="cls-14" x="222.09" y="0">I</tspan><tspan class="cls-10" x="238.02" y="0">D</tspan><tspan class="cls-15" x="271.72" y="0">E</tspan></text><text class="cls-16" transform="translate(217.02 1183.03)">F<tspan class="cls-17" x="27.8" y="0">I</tspan><tspan class="cls-18" x="43.73" y="0">L</tspan><tspan class="cls-12" x="68.41" y="0">M </tspan><tspan class="cls-19" x="123.06" y="0">C</tspan><tspan class="cls-10" x="154.83" y="0">O</tspan><tspan class="cls-18" x="190.13" y="0">LL</tspan><tspan class="cls-20" x="239.48" y="0">E</tspan><tspan class="cls-21" x="267.56" y="0">C</tspan><tspan class="cls-22" x="299.99" y="0">T</tspan><tspan class="cls-23" x="327.29" y="0">IO</tspan><tspan class="cls-24" x="378.46" y="0">N</tspan><tspan class="cls-12" x="412.82" y="0">S</tspan></text><rect class="cls-1" x="195.14" y="1359.11" width="517.23" height="372.49"/><rect class="cls-1" x="195.14" y="1313.18" width="193.71" height="100.77"/><text class="cls-9" transform="translate(223.03 1704.09)">S<tspan class="cls-25" x="28.96" y="0">P</tspan><tspan class="cls-23" x="59.17" y="0">O</tspan><tspan class="cls-24" x="94.47" y="0">N</tspan><tspan class="cls-26" x="128.82" y="0">S</tspan><tspan class="cls-23" x="157.41" y="0">O</tspan><tspan class="cls-27" x="192.71" y="0">R</tspan><tspan class="cls-12" x="223.53" y="0">S</tspan></text><line class="cls-6" x1="900.63" y1="1660.14" x2="704.45" y2="1660.14"/><rect class="cls-2" x="226.33" y="1396.46" width="101.41" height="68.68"/><line class="cls-4" x1="237.83" y1="1409.81" x2="314.7" y2="1452.45"/><line class="cls-4" x1="314.7" y1="1409.81" x2="237.83" y2="1452.45"/><line class="cls-4" x1="237.83" y1="1409.81" x2="314.7" y2="1452.45"/><rect class="cls-2" x="343.59" y="1396.46" width="101.41" height="68.68"/><line class="cls-4" x1="355.83" y1="1409.81" x2="432.7" y2="1452.45"/><line class="cls-4" x1="432.7" y1="1409.81" x2="355.83" y2="1452.45"/><line class="cls-4" x1="355.83" y1="1409.81" x2="432.7" y2="1452.45"/><rect class="cls-2" x="460.85" y="1396.46" width="101.41" height="68.68"/><line class="cls-4" x1="471.59" y1="1409.81" x2="548.46" y2="1452.45"/><line class="cls-4" x1="548.46" y1="1409.81" x2="471.59" y2="1452.45"/><line class="cls-4" x1="471.59" y1="1409.81" x2="548.46" y2="1452.45"/><rect class="cls-2" x="578.11" y="1396.46" width="101.41" height="68.68"/><line class="cls-4" x1="588.85" y1="1409.81" x2="665.72" y2="1452.45"/><line class="cls-4" x1="665.72" y1="1409.81" x2="588.85" y2="1452.45"/><line class="cls-4" x1="588.85" y1="1409.81" x2="665.72" y2="1452.45"/><rect class="cls-2" x="226.33" y="1483.65" width="101.41" height="68.68"/><line class="cls-4" x1="237.83" y1="1497" x2="314.7" y2="1539.64"/><line class="cls-4" x1="314.7" y1="1497" x2="237.83" y2="1539.64"/><line class="cls-4" x1="237.83" y1="1497" x2="314.7" y2="1539.64"/><rect class="cls-2" x="343.59" y="1483.65" width="101.41" height="68.68"/><line class="cls-4" x1="355.83" y1="1497" x2="432.7" y2="1539.64"/><line class="cls-4" x1="432.7" y1="1497" x2="355.83" y2="1539.64"/><line class="cls-4" x1="355.83" y1="1497" x2="432.7" y2="1539.64"/><rect class="cls-2" x="460.85" y="1483.65" width="101.41" height="68.68"/><line class="cls-4" x1="471.59" y1="1497" x2="548.46" y2="1539.64"/><line class="cls-4" x1="548.46" y1="1497" x2="471.59" y2="1539.64"/><line class="cls-4" x1="471.59" y1="1497" x2="548.46" y2="1539.64"/><rect class="cls-2" x="578.11" y="1483.65" width="101.41" height="68.68"/><line class="cls-4" x1="588.85" y1="1497" x2="665.72" y2="1539.64"/><line class="cls-4" x1="665.72" y1="1497" x2="588.85" y2="1539.64"/><line class="cls-4" x1="588.85" y1="1497" x2="665.72" y2="1539.64"/><rect class="cls-2" x="226.33" y="1570.85" width="101.41" height="68.68"/><line class="cls-4" x1="237.83" y1="1584.19" x2="314.7" y2="1626.83"/><line class="cls-4" x1="314.7" y1="1584.19" x2="237.83" y2="1626.83"/><line class="cls-4" x1="237.83" y1="1584.19" x2="314.7" y2="1626.83"/><rect class="cls-2" x="343.59" y="1570.85" width="101.41" height="68.68"/><line class="cls-4" x1="355.83" y1="1584.19" x2="432.7" y2="1626.83"/><line class="cls-4" x1="432.7" y1="1584.19" x2="355.83" y2="1626.83"/><line class="cls-4" x1="355.83" y1="1584.19" x2="432.7" y2="1626.83"/><rect class="cls-2" x="460.85" y="1570.85" width="101.41" height="68.68"/><line class="cls-4" x1="471.59" y1="1584.19" x2="548.46" y2="1626.83"/><line class="cls-4" x1="548.46" y1="1584.19" x2="471.59" y2="1626.83"/><line class="cls-4" x1="471.59" y1="1584.19" x2="548.46" y2="1626.83"/><rect class="cls-2" x="578.11" y="1570.85" width="101.41" height="68.68"/><line class="cls-4" x1="588.85" y1="1584.19" x2="665.72" y2="1626.83"/><line class="cls-4" x1="665.72" y1="1584.19" x2="588.85" y2="1626.83"/><line class="cls-4" x1="588.85" y1="1584.19" x2="665.72" y2="1626.83"/><rect class="cls-8" x="244.04" y="916.1" width="121.72" height="157.86"/><polygon class="cls-7" points="303.23 975.38 243.17 975.38 303.23 915.32 303.23 975.38"/><polygon class="cls-1" points="242.84 914.67 302.9 914.67 242.84 974.73 242.84 914.67"/><rect class="cls-8" x="393.57" y="916.1" width="121.72" height="157.86"/><polygon class="cls-7" points="452.76 975.38 392.69 975.38 452.76 915.32 452.76 975.38"/><polygon class="cls-1" points="392.37 914.67 452.43 914.67 392.37 974.73 392.37 914.67"/><rect class="cls-8" x="543.09" y="916.1" width="121.72" height="157.86"/><polygon class="cls-7" points="602.29 975.38 542.22 975.38 602.29 915.32 602.29 975.38"/><polygon class="cls-1" points="541.9 914.67 601.96 914.67 541.9 974.73 541.9 914.67"/></svg>