<svg xmlns="http://www.w3.org/2000/svg" viewBox="0 0 1712.14 1738.57"><defs><style>.cls-1{fill:#fff;}.cls-2{fill:#a5b5b8;}.cls-3{fill:#3cc0c2;}.cls-4{fill:#cddadd;}.cls-5{fill:#ebf7f8;}.cls-6{fill:#93a1a3;}.cls-7{fill:#e54c25;}.cls-8{fill:#eaa024;}.cls-9{fill:#62bd66;}.cls-10{fill:#f0f7f7;}.cls-11{fill:none;stroke:#8a9a9e;stroke-miterlimit:10;}.cls-12{fill:#b5c5c9;}.cls-13{fill:#2b9499;}.cls-14{fill:#141919;}.cls-15{fill:#536164;}</style></defs><title>promo-airship</title><g id="Layer_3" data-name="Layer 3"><path class="cls-1" d="M108.33,170.55H1481V1731.72c0,11-7.41,20-16.54,20H108.33Z"/><rect class="cls-2" x="108.33" y="116.26" width="1372.62" height="180.39" rx="13.91"/><rect class="cls-3" x="108.33" y="283.35" width="1372.62" height="138.51"/><rect class="cls-4" x="173.7" y="524.47" width="287.38" height="307.8"/><rect class="cls-5" x="173.7" y="738.27" width="287.38" height="94.01"/><rect class="cls-4" x="803.61" y="524.47" width="287.38" height="307.8"/><rect class="cls-5" x="803.61" y="738.27" width="287.38" height="94.01"/><rect class="cls-4" x="488.66" y="524.47" width="287.38" height="307.8"/><rect class="cls-5" x="488.66" y="738.27" width="287.38" height="94.01"/><rect class="cls-4" x="1118.56" y="524.47" width="287.38" height="307.8"/><rect class="cls-5" x="1118.56" y="738.27" width="287.38" height="94.01"/><rect class="cls-4" x="173.7" y="908.91" width="287.38" height="307.8"/><rect class="cls-5" x="173.7" y="1122.7" width="287.38" height="94.01"/><rect class="cls-4" x="803.61" y="908.91" width="287.38" height="307.8"/><rect class="cls-5" x="803.61" y="1122.7" width="287.38" height="94.01"/><rect class="cls-4" x="488.66" y="908.91" width="287.38" height="307.8"/><rect class="cls-5" x="488.66" y="1122.7" width="287.38" height="94.01"/><rect class="cls-4" x="1118.56" y="908.91" width="287.38" height="307.8"/><rect class="cls-5" x="1118.56" y="1122.7" width="287.38" height="94.01"/><rect class="cls-4" x="173.7" y="1293.35" width="287.38" height="307.8"/><rect class="cls-5" x="173.7" y="1507.14" width="287.38" height="94.01"/><rect class="cls-4" x="803.61" y="1293.35" width="287.38" height="307.8"/><rect class="cls-5" x="803.61" y="1507.14" width="287.38" height="94.01"/><rect class="cls-4" x="488.66" y="1293.35" width="287.38" height="307.8"/><rect class="cls-5" x="488.66" y="1507.14" width="287.38" height="94.01"/><rect class="cls-4" x="1118.56" y="1293.35" width="287.38" height="307.8"/><rect class="cls-5" x="1118.56" y="1507.14" width="287.38" height="94.01"/><path class="cls-6" d="M691.68,204.28V183.37h-8.22C670.89,163.8,657.78,143.44,656,140.8c-4.24-6.23-7.33-7.82-11.44-7.82H490.41c-4.11,0-7.2,1.59-11.44,7.82-1.78,2.64-14.89,23-27.46,42.57h-6.12q0,10.45,0,20.91Z"/><path class="cls-6" d="M911.41,204.28V183.37h-8.22c-12.57-19.57-25.67-39.93-27.46-42.57-4.24-6.23-7.32-7.82-11.44-7.82H710.14c-4.11,0-7.19,1.59-11.44,7.82-1.78,2.64-14.89,23-27.46,42.57h-6.12q0,10.45,0,20.91Z"/><path class="cls-4" d="M467,204.28V183.37H458.8c-12.57-19.57-25.68-39.93-27.46-42.57C427.1,134.57,424,133,419.9,133H265.75c-4.11,0-7.2,1.59-11.44,7.82-1.79,2.64-14.89,23-27.46,42.57h-6.13q0,10.45,0,20.91Z"/><rect class="cls-4" x="108.33" y="181.49" width="1372.62" height="111.47"/><circle class="cls-7" cx="138.47" cy="143.72" r="11.95" transform="translate(-25.58 257.38) rotate(-80.78)"/><circle class="cls-8" cx="169.06" cy="143.72" r="11.95" transform="translate(0.11 287.57) rotate(-80.78)"/><circle class="cls-9" cx="199.65" cy="143.72" r="11.95" transform="matrix(0.16, -0.99, 0.99, 0.16, 25.8, 317.77)"/><rect class="cls-10" x="264.65" y="207.26" width="1155.18" height="53.64" rx="4.44"/><line class="cls-11" x1="171.54" y1="232.64" x2="143.65" y2="232.64"/><polyline class="cls-11" points="156.72 246.28 143.08 232.63 156.72 219"/><line class="cls-11" x1="201.4" y1="232.64" x2="229.29" y2="232.64"/><polyline class="cls-11" points="216.22 219 229.87 232.63 216.22 246.28"/><rect class="cls-12" x="284.51" y="226.04" width="456.72" height="17.56"/><rect class="cls-13" x="168.12" y="330.54" width="252.61" height="49.8"/><rect class="cls-13" x="872.18" y="345.29" width="107.18" height="20.31"/><rect class="cls-13" x="1014.37" y="345.29" width="107.18" height="20.31"/><rect class="cls-13" x="1156.57" y="345.29" width="107.18" height="20.31"/><rect class="cls-13" x="1298.76" y="345.29" width="107.18" height="20.31"/><rect class="cls-12" x="437.68" y="782.52" width="1166.14" height="173.86" rx="13.41"/><rect class="cls-14" x="437.68" y="850.37" width="1166.14" height="806.23"/><circle class="cls-7" cx="466.72" cy="814.56" r="11.51" transform="translate(-412.08 1144.78) rotate(-80.78)"/><circle class="cls-8" cx="496.21" cy="814.56" r="11.51" transform="translate(-387.32 1173.88) rotate(-80.78)"/><circle class="cls-9" cx="525.69" cy="814.56" r="11.51" transform="translate(-362.56 1202.98) rotate(-80.78)"/><rect class="cls-9" x="515.94" y="926.86" width="108.12" height="30.94"/><rect class="cls-15" x="644.47" y="926.86" width="480.61" height="30.94"/><rect class="cls-15" x="515.94" y="980.86" width="786.02" height="30.94"/><rect class="cls-15" x="515.94" y="1091.17" width="420.28" height="30.94"/><rect class="cls-15" x="515.94" y="1035.37" width="991.49" height="30.94"/><rect class="cls-15" x="515.94" y="1204.01" width="564.55" height="30.94"/><rect class="cls-15" x="515.94" y="1314.33" width="420.28" height="30.94"/><rect class="cls-15" x="515.94" y="1403.08" width="142.23" height="30.94"/><rect class="cls-15" x="710.05" y="1403.08" width="548.81" height="30.94"/><rect class="cls-15" x="515.94" y="1453.8" width="142.23" height="30.94"/><rect class="cls-15" x="710.05" y="1453.8" width="548.81" height="30.94"/><rect class="cls-15" x="515.94" y="1504.52" width="142.23" height="30.94"/><rect class="cls-15" x="710.05" y="1504.52" width="548.81" height="30.94"/><rect class="cls-15" x="515.94" y="1555.23" width="142.23" height="30.94"/><rect class="cls-15" x="710.05" y="1555.23" width="548.81" height="30.94"/><rect class="cls-15" x="515.94" y="1258.53" width="163.21" height="30.94"/><rect class="cls-9" x="515.94" y="1150.02" width="108.12" height="30.94"/><rect class="cls-15" x="644.47" y="1150.02" width="110.75" height="30.94"/></g></svg>