<svg xmlns="http://www.w3.org/2000/svg" viewBox="0 0 18.21 18.21"><defs><style>.cls-1{fill:#9daab1;}</style></defs><title>github-bluegrey</title><g id="Layer_2" data-name="Layer 2"><g id="Layer_1-2" data-name="Layer 1"><path id="github-bluegrey" class="cls-1" d="M9.11,0a9.11,9.11,0,1,0,9.1,9.11A9.12,9.12,0,0,0,9.11,0Zm2.16,16.88a12.52,12.52,0,0,0-.82-4.1,4.06,4.06,0,0,0,1.22-.27,2.75,2.75,0,0,0,1.93-2.38A3.08,3.08,0,0,0,13,7.48a.32.32,0,0,1,0-.27,3,3,0,0,0,0-1.4c-.08-.31-.26-.4-.53-.31-.43.17-.85.35-1.26.56a.8.8,0,0,1-.59.11,7,7,0,0,0-3.08,0A1,1,0,0,1,7,6.09c-.44-.18-1.12-.49-1.35-.57s-.46,0-.46.29a2.77,2.77,0,0,0,0,1.4.47.47,0,0,1,0,.33,3.26,3.26,0,0,0,2.15,5.24h.54A13.15,13.15,0,0,0,7,16.89a8.08,8.08,0,1,1,4.3,0Z"/></g></g></svg>