<svg xmlns="http://www.w3.org/2000/svg" viewBox="0 0 18.21 18.21"><defs><style>.cls-1,.cls-2{fill:#9daab1;}.cls-1{fill-rule:evenodd;}</style></defs><title>gomagames-bluegrey</title><g id="Layer_2" data-name="Layer 2"><g id="Layer_1-2" data-name="Layer 1"><g id="gomagames-bluegrey"><path class="cls-1" d="M9.11,0a9.11,9.11,0,1,0,9.1,9.11A9.12,9.12,0,0,0,9.11,0Zm0,17.18a8.08,8.08,0,1,1,8.07-8.07A8.08,8.08,0,0,1,9.11,17.18Z"/><path class="cls-2" d="M7.12,13.68c-.86.05-1.54-.21-1.54-1.24V6.05c0-1.07.7-1.41,1.53-1.5s1.53.1,1.53,1.17V7.07l-1.06.16V5.83c0-.3-.12-.44-.43-.41a.49.49,0,0,0-.48.51v6.45c0,.29.13.4.38.4a1.34,1.34,0,0,0,.54-.13V9.4l-.52.06v-1l1.57-.14v4.9A3.44,3.44,0,0,1,7.12,13.68Z"/><path class="cls-2" d="M11.11,13.68c-.86.05-1.54-.21-1.54-1.24V6.05c0-1.07.7-1.41,1.53-1.5s1.53.1,1.53,1.17V7.07l-1.06.16V5.83c0-.3-.12-.44-.43-.41a.49.49,0,0,0-.48.51v6.45c0,.29.13.4.38.4a1.34,1.34,0,0,0,.54-.13V9.4l-.52.06v-1l1.57-.14v4.9A3.44,3.44,0,0,1,11.11,13.68Z"/></g></g></g></svg>