<svg xmlns="http://www.w3.org/2000/svg" viewBox="0 0 18.21 18.21"><defs><style>.cls-1{fill:#d6d6d6;}</style></defs><title>instagram-grey</title><g id="Layer_2" data-name="Layer 2"><g id="Layer_1-2" data-name="Layer 1"><g id="instagram-grey"><path class="cls-1" d="M14.27,7A4.21,4.21,0,0,0,14,5.71a2.6,2.6,0,0,0-.61-.92,2.54,2.54,0,0,0-.91-.6A4,4,0,0,0,11.25,4c-.56,0-.74,0-2.14,0S7.53,3.93,7,4a3.86,3.86,0,0,0-1.25.24,2.53,2.53,0,0,0-.93.6,2.5,2.5,0,0,0-.59.92A4,4,0,0,0,4,7c0,.55,0,.74,0,2.14s0,1.57,0,2.13a3.87,3.87,0,0,0,.24,1.26,2.57,2.57,0,0,0,.6.92,2.53,2.53,0,0,0,.92.6A3.72,3.72,0,0,0,7,14.26c.56,0,.74,0,2.14,0s1.57,0,2.13,0A3.62,3.62,0,0,0,12.5,14,2.65,2.65,0,0,0,14,12.5a3.62,3.62,0,0,0,.24-1.26c0-.55,0-.74,0-2.13s0-1.59,0-2.14ZM9.11,13.35c-1.36,0-1.54,0-2.09,0a2.8,2.8,0,0,1-1-.18,1.66,1.66,0,0,1-.59-.38,1.73,1.73,0,0,1-.39-.6,2.81,2.81,0,0,1-.17-1c0-.56,0-.72,0-2.09s0-1.54,0-2.09a2.87,2.87,0,0,1,.17-1,1.69,1.69,0,0,1,.39-.59,1.79,1.79,0,0,1,.59-.39,2.93,2.93,0,0,1,1-.17c.55,0,.74,0,2.09,0s1.54,0,2.1,0a2.8,2.8,0,0,1,.95.17,1.73,1.73,0,0,1,.6.39,1.62,1.62,0,0,1,.38.59,2.8,2.8,0,0,1,.18,1c0,.54,0,.68,0,2.09s0,1.55,0,2.09h0a2.8,2.8,0,0,1-.18,1,1.69,1.69,0,0,1-1,1,2.75,2.75,0,0,1-1,.18C10.64,13.34,10.47,13.35,9.11,13.35Z"/><path class="cls-1" d="M9.11,6.56a2.55,2.55,0,1,0,2.54,2.55A2.55,2.55,0,0,0,9.11,6.56Zm1.64,2.55A1.64,1.64,0,1,1,9.11,7.47,1.65,1.65,0,0,1,10.75,9.11Z"/><path class="cls-1" d="M12.28,6.34a.41.41,0,1,0-.81,0,.41.41,0,1,0,.81,0Z"/><path class="cls-1" d="M9.11,0a9.11,9.11,0,1,0,9.1,9.11A9.12,9.12,0,0,0,9.11,0Zm0,17.18a8.08,8.08,0,1,1,8.07-8.07A8.08,8.08,0,0,1,9.11,17.18Z"/></g></g></g></svg>