<svg xmlns="http://www.w3.org/2000/svg" viewBox="0 0 18.21 18.21"><defs><style>.cls-1{fill:#d6d6d6;}</style></defs><title>airshipcms-grey</title><g id="Layer_2" data-name="Layer 2"><g id="Layer_1-2" data-name="Layer 1"><path class="cls-1" d="M9.11,0a9.11,9.11,0,1,0,9.1,9.11A9.12,9.12,0,0,0,9.11,0Zm0,17.18a8.08,8.08,0,1,1,8.07-8.07A8.08,8.08,0,0,1,9.11,17.18Z"/><path class="cls-1" d="M11.37,6.11A4.57,4.57,0,0,0,9.13,3.69H9.08A4.56,4.56,0,0,0,6.85,6.11a52,52,0,0,0,.69,6.16c0,.11.09.18.17.18H8.5l-.06-.76a17.24,17.24,0,0,1-.09-2.13c.13-.33.49-.78.75-.78h0c.27,0,.62.45.76.78a23,23,0,0,1-.18,2.89h.82c.07,0,.14-.07.16-.18A50.13,50.13,0,0,0,11.37,6.11ZM9.9,7.42c0,.08,0,.08-.07,0a1.72,1.72,0,0,0-.72-.58h0L9,6.92a1.7,1.7,0,0,0-.39.3l-.21.23s-.06,0-.07,0a3.33,3.33,0,0,1,0-.34c0-.08,0-.17,0-.24s0-.14,0-.18v0a1.76,1.76,0,0,1,.19-.39.61.61,0,0,1,.12-.16,1.17,1.17,0,0,1,.49-.44h0a1.74,1.74,0,0,1,.8,1A7.3,7.3,0,0,1,9.9,7.42Z"/><path class="cls-1" d="M5.25,9.83A.93.93,0,0,0,5,10.4a11.17,11.17,0,0,0,.92,3.41A3.62,3.62,0,0,0,7,12.32c-.07-.41-.39-2.23-.52-3.44A8.66,8.66,0,0,0,5.25,9.83Z"/><path class="cls-1" d="M11.72,8.88c-.12,1.21-.44,3-.51,3.44a3.62,3.62,0,0,0,1.12,1.49,10.9,10.9,0,0,0,.91-3.41A.88.88,0,0,0,13,9.83,7.66,7.66,0,0,0,11.72,8.88Z"/><path class="cls-1" d="M9.11,9.32h0a1,1,0,0,0-.32.56c0,.07.1,3.24.2,3.77,0,.1.1.29.13.29a.74.74,0,0,0,.12-.29c.09-.43.23-3.7.21-3.77A1,1,0,0,0,9.11,9.32Z"/></g></g></svg>