<svg xmlns="http://www.w3.org/2000/svg" viewBox="0 0 35.33 35.33"><defs><style>.cls-1{fill:#231f20;}</style></defs><title>codepen</title><g id="Layer_2" data-name="Layer 2"><g id="Layer_1-2" data-name="Layer 1"><path class="cls-1" d="M27.49,14.52a.15.15,0,0,0,0-.07s0,0,0,0l0-.06s0,0,0,0l0-.05,0,0,0-.05,0,0,0,0,0,0-.05,0,0,0h0l-9-6a.85.85,0,0,0-.94,0l-9,6h0l0,0,0,0,0,0,0,0,0,0,0,.05,0,0,0,.05a.05.05,0,0,1,0,0s0,0,0,.06,0,0,0,0a.64.64,0,0,0,0,.07v0a.45.45,0,0,0,0,.11v6a.37.37,0,0,0,0,.11v0s0,.05,0,.07,0,0,0,0,0,0,0,.06,0,0,0,.05l0,0,0,0,0,.05,0,0,0,0a.08.08,0,0,0,0,0s0,0,0,0l0,0h0l9,6a.92.92,0,0,0,.47.14.86.86,0,0,0,.47-.14l9-6h0l0,0,.05,0,0,0s0,0,0,0l0,0,0-.05,0,0,0,0s0,0,0-.05l0-.06s0,0,0,0a.17.17,0,0,0,0-.07v0a.37.37,0,0,0,0-.11v-6a.45.45,0,0,0,0-.11Zm-9-4.27,6.63,4.41-3,2-3.67-2.46Zm-1.69,0v3.94l-3.67,2.46-3-2Zm-7.31,6,2.12,1.41L9.51,19.08Zm7.31,8.83-6.63-4.42,3-2,3.67,2.45Zm.84-5.41-3-2,3-2,3,2Zm.85,5.41V21.13l3.67-2.45,3,2Zm7.31-6L23.7,17.66l2.12-1.41Z"/><path class="cls-1" d="M17.66,0A17.67,17.67,0,1,0,35.33,17.66,17.68,17.68,0,0,0,17.66,0Zm0,33.33A15.67,15.67,0,1,1,33.33,17.66,15.69,15.69,0,0,1,17.66,33.33Z"/></g></g></svg>