<svg xmlns="http://www.w3.org/2000/svg" viewBox="0 0 35.33 35.33"><defs><style>.cls-1{fill:#1a1718;}</style></defs><title>github</title><g id="Layer_2" data-name="Layer 2"><g id="Layer_1-2" data-name="Layer 1"><path class="cls-1" d="M17.66,0A17.67,17.67,0,1,0,35.33,17.66,17.68,17.68,0,0,0,17.66,0Zm4.19,32.74a24.39,24.39,0,0,0-1.57-8,8.4,8.4,0,0,0,2.36-.51,5.33,5.33,0,0,0,3.73-4.63,6,6,0,0,0-1.16-5.14.65.65,0,0,1,0-.51,5.69,5.69,0,0,0,0-2.72c-.15-.59-.51-.77-1-.59a25.23,25.23,0,0,0-2.45,1.07,1.5,1.5,0,0,1-1.13.21,14,14,0,0,0-6,0,1.87,1.87,0,0,1-1-.15c-.86-.36-2.18-1-2.62-1.1s-.9,0-.9.56a5.69,5.69,0,0,0,0,2.72.86.86,0,0,1,0,.63,6.25,6.25,0,0,0-1.27,3.05,6.33,6.33,0,0,0,5.45,7.11h1a25.7,25.7,0,0,0-1.84,8,15.67,15.67,0,1,1,8.34,0Z"/></g></g></svg>