<svg xmlns="http://www.w3.org/2000/svg" viewBox="0 0 18.21 18.21"><defs><style>.cls-1{fill:#29bab9;}</style></defs><title>linkedin-blue</title><g id="Layer_2" data-name="Layer 2"><g id="Layer_1-2" data-name="Layer 1"><path class="cls-1" d="M6.68,4.88a.88.88,0,0,0-.94.87.86.86,0,0,0,.92.86h0a.87.87,0,1,0,0-1.73Z"/><rect class="cls-1" x="5.84" y="7.3" width="1.66" height="5"/><path class="cls-1" d="M11.59,7.18a1.64,1.64,0,0,0-1.5.82V8h0V7.3H8.43c0,.46,0,5,0,5h1.66V9.5a1.25,1.25,0,0,1,.05-.4A.92.92,0,0,1,11,8.49c.6,0,.84.46.84,1.13V12.3H13.5V9.43C13.5,7.89,12.68,7.18,11.59,7.18Z"/><path class="cls-1" d="M9.11,0a9.11,9.11,0,1,0,9.1,9.11A9.12,9.12,0,0,0,9.11,0Zm0,17.18a8.08,8.08,0,1,1,8.07-8.07A8.08,8.08,0,0,1,9.11,17.18Z"/></g></g></svg>