<svg xmlns="http://www.w3.org/2000/svg" viewBox="0 0 323.47 256.39"><defs><style>.cls-1{fill:#25b1b1;}</style></defs><title>placeholder-teal</title><g id="Layer_2" data-name="Layer 2"><g id="Layer_1-2" data-name="Layer 1"><polygon class="cls-1" points="200.22 54.59 200.22 65.33 200.22 98.24 164.43 98.24 164.43 42.8 147.62 42.8 147.62 0 37.2 0 37.2 78.98 147.62 78.98 147.62 43.8 163.43 43.8 163.43 99.24 200.22 99.24 200.22 123.97 74.36 123.97 74.36 165.95 17.66 165.95 17.66 177.99 0 177.99 0 256.39 112.12 256.39 112.12 244.35 129.77 244.35 129.77 165.95 75.36 165.95 75.36 124.97 200.22 124.97 200.22 149.78 323.47 149.78 323.47 65.33 323.47 54.59 200.22 54.59"/></g></g></svg>