<svg xmlns="http://www.w3.org/2000/svg" viewBox="0 0 396.63 274.22"><defs><style>.cls-1{fill:#788992;}</style></defs><title>placeholder-grey</title><g id="Layer_2" data-name="Layer 2"><g id="Layer_1-2" data-name="Layer 1"><polygon class="cls-1" points="247.56 33.33 247.56 56.8 218.06 56.8 218.06 11.19 174.03 11.19 174.03 0 0 0 0 27.88 174.03 27.88 174.03 13.19 216.06 13.19 216.06 58.8 247.56 58.8 247.56 113.83 194.76 113.83 194.76 68.22 174.03 68.22 174.03 48.83 0 48.83 0 98.91 174.03 98.91 174.03 70.22 192.76 70.22 192.76 115.83 247.56 115.83 247.56 176.87 217.42 176.87 217.42 167.23 173.61 167.23 173.61 149.62 121.43 149.62 121.43 186.03 173.61 186.03 173.61 169.23 215.42 169.23 215.42 178.87 247.56 178.87 247.56 193.01 199.56 193.01 199.56 211.35 173.61 211.35 173.61 193.72 121.43 193.72 121.43 230.13 173.61 230.13 173.61 213.35 201.56 213.35 201.56 195.01 247.56 195.01 247.56 205.92 215.42 205.92 215.42 253.81 173.61 253.81 173.61 237.81 121.43 237.81 121.43 274.22 173.61 274.22 173.61 255.81 217.42 255.81 217.42 207.92 247.56 207.92 247.56 221 396.63 221 396.63 33.33 247.56 33.33"/><rect class="cls-1" x="1.31" y="149.62" width="52.19" height="36.41"/><rect class="cls-1" x="60.97" y="149.62" width="52.19" height="36.41"/><rect class="cls-1" x="1.31" y="193.72" width="52.19" height="36.41"/><rect class="cls-1" x="60.97" y="193.72" width="52.19" height="36.41"/><rect class="cls-1" x="1.31" y="237.82" width="52.19" height="36.41"/><rect class="cls-1" x="60.97" y="237.82" width="52.19" height="36.41"/></g></g></svg>