<svg xmlns="http://www.w3.org/2000/svg" viewBox="0 0 413.06 175.08"><defs><style>.cls-1{fill:#e47c3b;}</style></defs><title>placeholder-orange</title><g id="Layer_2" data-name="Layer 2"><g id="Layer_1-2" data-name="Layer 1"><polygon class="cls-1" points="375.79 124.4 413.06 87.12 375.79 49.85 339.75 85.89 313.29 85.89 313.29 64.53 216.83 64.53 216.83 85.89 203.62 85.89 203.62 64.53 157.03 64.53 157.03 46.02 203.62 46.02 203.62 0 107.15 0 107.15 14.38 87.81 14.38 87.81 85.35 72.78 85.35 37.27 49.85 0 87.12 37.27 124.4 73.32 88.35 90.81 88.35 90.81 17.38 107.15 17.38 107.15 46.02 154.03 46.02 154.03 64.53 107.15 64.53 107.15 110.55 154.03 110.55 154.03 129.06 107.15 129.06 107.15 175.08 203.62 175.08 203.62 129.06 157.03 129.06 157.03 110.55 203.62 110.55 203.62 88.89 216.83 88.89 216.83 110.55 313.29 110.55 313.29 88.89 340.29 88.89 375.79 124.4"/></g></g></svg>