<svg xmlns="http://www.w3.org/2000/svg" viewBox="0 0 35.33 35.33"><defs><style>.cls-1{fill:#1a1718;}</style></defs><title>airshipcms</title><g id="Layer_2" data-name="Layer 2"><g id="Layer_1-2" data-name="Layer 1"><path class="cls-1" d="M17.66,0A17.67,17.67,0,1,0,35.33,17.66,17.68,17.68,0,0,0,17.66,0Zm0,33.33A15.67,15.67,0,1,1,33.33,17.66,15.69,15.69,0,0,1,17.66,33.33Z"/><path class="cls-1" d="M22.05,11.85c-1-2.59-3.72-4.7-4.34-4.7h-.09c-.63,0-3.35,2.11-4.34,4.7-.27.71,1.05,10.5,1.35,12a.37.37,0,0,0,.32.33h1.54c0-.48-.09-1-.13-1.47a36.06,36.06,0,0,1-.17-4.13c.26-.65.95-1.51,1.46-1.51h0c.51,0,1.2.86,1.46,1.51a43.59,43.59,0,0,1-.34,5.6h1.58c.14,0,.27-.14.32-.33C21,22.35,22.32,12.56,22.05,11.85Zm-2.84,2.53c0,.16-.06.18-.14.07a3.26,3.26,0,0,0-1.4-1.12h0a.52.52,0,0,0-.23.09,3.94,3.94,0,0,0-.76.59,3.38,3.38,0,0,0-.4.44c-.08.11-.13.09-.14-.07s0-.39,0-.64v-.82a.26.26,0,0,0,0-.07,3.93,3.93,0,0,1,.59-1.07,2.29,2.29,0,0,1,1-.84h0a3.49,3.49,0,0,1,1.56,1.91C19.25,12.92,19.24,14,19.21,14.38Z"/><path class="cls-1" d="M10.19,19.07a1.73,1.73,0,0,0-.55,1.1c0,1.34,1.24,6.11,1.78,6.62.66-.22,1.86-2.09,2.17-2.89-.13-.79-.76-4.32-1-6.68A14.77,14.77,0,0,0,10.19,19.07Z"/><path class="cls-1" d="M22.73,17.22c-.24,2.36-.86,5.89-1,6.68.32.8,1.52,2.67,2.18,2.89.54-.51,1.76-5.28,1.78-6.62a1.73,1.73,0,0,0-.55-1.1A14.77,14.77,0,0,0,22.73,17.22Z"/><path class="cls-1" d="M17.67,18.08h0A1.9,1.9,0,0,0,17,19.16c0,.14.2,6.29.4,7.31,0,.2.18.56.24.56a1.29,1.29,0,0,0,.24-.56c.18-.84.44-7.17.4-7.31A1.86,1.86,0,0,0,17.67,18.08Z"/></g></g></svg>