<svg xmlns="http://www.w3.org/2000/svg" viewBox="0 0 18.21 18.21"><defs><style>.cls-1{fill:#9daab1;}</style></defs><title>codepen-bluegrey</title><g id="Layer_2" data-name="Layer 2"><g id="Layer_1-2" data-name="Layer 1"><path class="cls-1" d="M14.18,7.48a0,0,0,0,1,0,0V7.34l0,0,0,0v0l0,0,0,0,0,0,0,0h0L9.35,4.1a.46.46,0,0,0-.48,0L4.23,7.2h0l0,0,0,0v0l0,0v0l0,0v0l0,0v.08a0,0,0,0,0,0,0v0a.13.13,0,0,0,0,.06v3.09a.13.13,0,0,0,0,.06v0a.08.08,0,0,0,0,0v.07l0,0v0l0,0h0l0,0v0l0,0h0l4.64,3.09a.4.4,0,0,0,.24.07.42.42,0,0,0,.24-.07L14,11h0l0,0,0,0,0,0h0l0,0,0,0v-.1s0,0,0,0V7.48ZM9.54,5.28,13,7.56l-1.53,1L9.54,7.32Zm-.87,0v2L6.78,8.58l-1.53-1ZM4.9,8.38,6,9.11,4.9,9.84Zm3.77,4.55L5.25,10.65l1.53-1L8.67,10.9Zm.44-2.79-1.55-1,1.55-1,1.54,1Zm.43,2.79v-2l1.89-1.27,1.53,1Zm3.77-3.09-1.09-.73,1.09-.73Z"/><path class="cls-1" d="M9.11,0a9.11,9.11,0,1,0,9.1,9.11A9.12,9.12,0,0,0,9.11,0Zm0,17.18a8.08,8.08,0,1,1,8.07-8.07A8.08,8.08,0,0,1,9.11,17.18Z"/></g></g></svg>