<svg xmlns="http://www.w3.org/2000/svg" viewBox="0 0 18.21 18.21"><defs><style>.cls-1,.cls-2{fill:#d6d6d6;}.cls-1{fill-rule:evenodd;}</style></defs><title>download-grey</title><g id="Layer_2" data-name="Layer 2"><g id="Layer_1-2" data-name="Layer 1"><g id="download-grey"><path class="cls-1" d="M9.11,0a9.11,9.11,0,1,0,9.1,9.11A9.12,9.12,0,0,0,9.11,0Zm0,17.18a8.08,8.08,0,1,1,8.07-8.07A8.08,8.08,0,0,1,9.11,17.18Z"/><path class="cls-2" d="M12,8.25c.22,0,.29.14.14.31l-2.7,3a.38.38,0,0,1-.55,0l-2.69-3c-.15-.17-.09-.31.13-.31H7.59A.41.41,0,0,0,8,7.84V5a.41.41,0,0,1,.41-.41H9.85a.43.43,0,0,1,.42.41V7.84a.41.41,0,0,0,.41.41Zm.45,3.41a.19.19,0,0,0-.2.17v.95H6v-.95a.19.19,0,0,0-.2-.17H5.32a.19.19,0,0,0-.2.17v1a.78.78,0,0,0,.83.73h6.32a.79.79,0,0,0,.83-.73v-1a.19.19,0,0,0-.2-.17Z"/></g></g></g></svg>