<svg xmlns="http://www.w3.org/2000/svg" viewBox="0 0 35.33 35.33"><defs><style>.cls-1{fill:#131313;}</style></defs><title>email</title><g id="Layer_2" data-name="Layer 2"><g id="Layer_1-2" data-name="Layer 1"><path class="cls-1" d="M17.66,0A17.67,17.67,0,1,0,35.33,17.66,17.68,17.68,0,0,0,17.66,0Zm0,33.33A15.67,15.67,0,1,1,33.33,17.66,15.69,15.69,0,0,1,17.66,33.33Z"/><path class="cls-1" d="M25.66,10.92h-16a1.74,1.74,0,0,0-1.73,1.74v10A1.73,1.73,0,0,0,9.67,24.4h16a1.73,1.73,0,0,0,1.73-1.73v-10A1.74,1.74,0,0,0,25.66,10.92Zm-.8,1.45-7.13,6.52-7.25-6.52ZM9.39,22V13.34l4.91,4.42Zm1.13.93,4.87-4.22,2.35,2.11L20,18.78,24.81,23ZM25.94,22,21.07,17.8l4.87-4.45Z"/></g></g></svg>