<svg xmlns="http://www.w3.org/2000/svg" viewBox="0 0 18.21 18.21"><defs><style>.cls-1{fill:#d6d6d6;}</style></defs><title>email-grey</title><g id="Layer_2" data-name="Layer 2"><g id="Layer_1-2" data-name="Layer 1"><g id="email-grey"><path class="cls-1" d="M9.11,0a9.11,9.11,0,1,0,9.1,9.11A9.12,9.12,0,0,0,9.11,0Zm0,17.18a8.08,8.08,0,1,1,8.07-8.07A8.08,8.08,0,0,1,9.11,17.18Z"/><path class="cls-1" d="M13.23,5.63H5a.88.88,0,0,0-.65.28.9.9,0,0,0-.25.62v5.16a.89.89,0,0,0,.9.89h8.24a.89.89,0,0,0,.89-.89V6.53A.89.89,0,0,0,13.23,5.63Zm-.41.75L9.14,9.74,5.4,6.38Zm-8,5V6.88L7.38,9.16Zm.58.48L7.94,9.66l1.21,1.09,1.16-1.06,2.48,2.14Zm8-.48L10.86,9.18l2.51-2.3Z"/></g></g></g></svg>