<svg xmlns="http://www.w3.org/2000/svg" viewBox="0 0 35.33 35.33"><defs><style>.cls-1{fill:#231f20;}</style></defs><title>instagram</title><g id="Layer_2" data-name="Layer 2"><g id="Layer_1-2" data-name="Layer 1"><path class="cls-1" d="M27.67,13.52a7.35,7.35,0,0,0-.47-2.44A4.82,4.82,0,0,0,26,9.3a5,5,0,0,0-1.79-1.17,7.36,7.36,0,0,0-2.44-.46c-1.07,0-1.43-.07-4.14-.07s-3.06,0-4.14.06a7.41,7.41,0,0,0-2.45.47A4.84,4.84,0,0,0,9.3,9.3a4.9,4.9,0,0,0-1.16,1.78,7.4,7.4,0,0,0-.47,2.44c0,1.07-.06,1.43-.06,4.15s0,3,0,4.14a7.61,7.61,0,0,0,.47,2.44A5.05,5.05,0,0,0,9.3,26a5.13,5.13,0,0,0,1.78,1.16,7.41,7.41,0,0,0,2.44.46c1.08.05,1.44.06,4.14.06s3.06,0,4.15-.06a7.41,7.41,0,0,0,2.44-.46,5.22,5.22,0,0,0,2.95-2.95,7.41,7.41,0,0,0,.46-2.44c.05-1.09.06-1.44.06-4.14s0-3.08,0-4.15Zm-10,12.37c-2.64,0-3,0-4.06-.06a5.73,5.73,0,0,1-1.86-.34,3.15,3.15,0,0,1-1.14-.75,3,3,0,0,1-.75-1.15,5.41,5.41,0,0,1-.34-1.86c0-1.09-.06-1.41-.06-4.06s0-3,.06-4.05a5.35,5.35,0,0,1,.34-1.86,3,3,0,0,1,.75-1.15,3,3,0,0,1,1.15-.75,5.35,5.35,0,0,1,1.86-.34c1.07,0,1.42-.06,4.06-.06s3,0,4.05.06a5.35,5.35,0,0,1,1.86.34,3,3,0,0,1,1.15.75,3,3,0,0,1,.75,1.15,5.35,5.35,0,0,1,.34,1.86c.05,1,.06,1.32.06,4.05s0,3-.06,4.06h0a5.47,5.47,0,0,1-.34,1.86,3.35,3.35,0,0,1-1.9,1.9,5.73,5.73,0,0,1-1.86.34C20.64,25.88,20.32,25.89,17.67,25.89Z"/><path class="cls-1" d="M17.67,12.73a4.94,4.94,0,1,0,4.93,4.94A4.94,4.94,0,0,0,17.67,12.73Zm3.18,4.94a3.18,3.18,0,1,1-3.18-3.18A3.18,3.18,0,0,1,20.85,17.67Z"/><path class="cls-1" d="M23.82,12.3a.79.79,0,1,0-.79.79A.79.79,0,0,0,23.82,12.3Z"/><path class="cls-1" d="M17.66,0A17.67,17.67,0,1,0,35.33,17.66,17.68,17.68,0,0,0,17.66,0Zm0,33.33A15.67,15.67,0,1,1,33.33,17.66,15.69,15.69,0,0,1,17.66,33.33Z"/></g></g></svg>