<svg xmlns="http://www.w3.org/2000/svg" viewBox="0 0 35.33 35.33"><defs><style>.cls-1{fill:#231f20;}</style></defs><title>linkedin</title><g id="Layer_2" data-name="Layer 2"><g id="Layer_1-2" data-name="Layer 1"><path class="cls-1" d="M13,9.47a1.68,1.68,0,1,0-.05,3.36h0a1.69,1.69,0,1,0,0-3.36Z"/><rect class="cls-1" x="11.33" y="14.15" width="3.23" height="9.7"/><path class="cls-1" d="M22.47,13.92a3.18,3.18,0,0,0-2.9,1.61v0h0l0,0V14.15H16.34c0,.91,0,9.7,0,9.7h3.23V18.43a2.27,2.27,0,0,1,.1-.78,1.78,1.78,0,0,1,1.66-1.18c1.17,0,1.63.89,1.63,2.19v5.19h3.23V18.29C26.19,15.31,24.6,13.92,22.47,13.92Z"/><path class="cls-1" d="M17.66,0A17.67,17.67,0,1,0,35.33,17.66,17.68,17.68,0,0,0,17.66,0Zm0,33.33A15.67,15.67,0,1,1,33.33,17.66,15.69,15.69,0,0,1,17.66,33.33Z"/></g></g></svg>